<svg xmlns:xlink="http://www.w3.org/1999/xlink" version="1.1" class="highcharts-root" style="font-family:&amp;quot;Lucida Grande&amp;quot;, &amp;quot;Lucida Sans Unicode&amp;quot;, Arial, Helvetica, sans-serif;font-size:12px;" xmlns="http://www.w3.org/2000/svg" width="600" height="400" viewBox="140.06 93.8742 412.88 275.2533"><defs><clipPath id="highcharts-8a1cl4z-17"><rect x="0" y="0" width="486" height="286" fill="none"/></clipPath></defs><g class="highcharts-series-group" data-z-index="3"><g data-z-index="0.1" class="highcharts-series highcharts-series-0 highcharts-area-series highcharts-color-0 " transform="translate(104,62) scale(1 1)" clip-path="url(#highcharts-8a1cl4z-17)"><path fill="rgb(124,181,236)" fill-opacity="0.75" d="M 48.6 57.20000000000002 L 145.8 251.68 L 243 199.056 L 340.2 217.36 L 437.4 205.92000000000002 L 437.4 286 L 340.2 286 L 243 286 L 145.8 286 L 48.6 286" class="highcharts-area" data-z-index="0"/><path fill="none" d="M 48.6 57.20000000000002 L 145.8 251.68 L 243 199.056 L 340.2 217.36 L 437.4 205.92000000000002" class="highcharts-graph" data-z-index="1" stroke="#7cb5ec" stroke-width="2" stroke-linejoin="round" stroke-linecap="round"/></g><g data-z-index="0.1" class="highcharts-markers highcharts-series-0 highcharts-area-series highcharts-color-0 " transform="translate(104,62) scale(1 1)" clip-path="none"><path fill="#7cb5ec" d="M 52 57 A 4 4 0 1 1 51.99999800000017 56.99600000066666 Z" class="highcharts-point highcharts-color-0"/><path fill="#7cb5ec" d="M 149 252 A 4 4 0 1 1 148.99999800000018 251.99600000066667 Z" class="highcharts-point highcharts-color-0"/><path fill="#7cb5ec" d="M 247 199 A 4 4 0 1 1 246.99999800000018 198.99600000066667 Z" class="highcharts-point highcharts-color-0"/><path fill="#7cb5ec" d="M 344 217 A 4 4 0 1 1 343.9999980000002 216.99600000066667 Z" class="highcharts-point highcharts-color-0"/><path fill="#7cb5ec" d="M 441 206 A 4 4 0 1 1 440.9999980000002 205.99600000066667 Z" class="highcharts-point highcharts-color-0"/></g><g data-z-index="0.1" class="highcharts-series highcharts-series-1 highcharts-area-series highcharts-color-1 " transform="translate(104,62) scale(1 1)" clip-path="url(#highcharts-8a1cl4z-17)"><path fill="rgb(67,67,72)" fill-opacity="0.75" d="M 48.6 125.84 L 145.8 228.8 L 243 183.04000000000002 L 340.2 217.36 L 437.4 171.60000000000002 L 437.4 286 L 340.2 286 L 243 286 L 145.8 286 L 48.6 286" class="highcharts-area" data-z-index="0"/><path fill="none" d="M 48.6 125.84 L 145.8 228.8 L 243 183.04000000000002 L 340.2 217.36 L 437.4 171.60000000000002" class="highcharts-graph" data-z-index="1" stroke="#434348" stroke-width="2" stroke-linejoin="round" stroke-linecap="round"/></g><g data-z-index="0.1" class="highcharts-markers highcharts-series-1 highcharts-area-series highcharts-color-1 " transform="translate(104,62) scale(1 1)" clip-path="none"><path fill="#434348" d="M 48 122 L 52 126 48 130 44 126 Z" class="highcharts-point highcharts-color-1"/><path fill="#434348" d="M 145 225 L 149 229 145 233 141 229 Z" class="highcharts-point highcharts-color-1"/><path fill="#434348" d="M 243 179 L 247 183 243 187 239 183 Z" class="highcharts-point highcharts-color-1"/><path fill="#434348" d="M 340 213 L 344 217 340 221 336 217 Z" class="highcharts-point highcharts-color-1"/><path fill="#434348" d="M 437 168 L 441 172 437 176 433 172 Z" class="highcharts-point highcharts-color-1"/></g></g></svg>
