<svg xmlns="http://www.w3.org/2000/svg" xmlns:xlink="http://www.w3.org/1999/xlink" version="1.1" id="bubble_chart" x="0px" y="0px" width="820px" height="446.5px" viewBox="62.8207 27.438 703.0586 382.824" style="enable-background:new 0 0 820 446.5;" xml:space="preserve"><style type="text/css">
	.st0{fill:#F5F5F5;}
	.st1{opacity:0.7;fill:#3A3A3A;}
	.st2{opacity:0.8;fill:#FF4F54;}
	.st3{opacity:0.8;fill:#86C300;}
	.st4{opacity:0.8;fill:#FFAF00;}
	.st5{opacity:0.6;}
	.st6{fill:#333333;}
</style><g><circle class="st1" cx="501.7" cy="247.9" r="15.1"/><circle class="st1" cx="616.3" cy="234.1" r="26.6"/><circle class="st1" cx="575.9" cy="212" r="26.6"/><circle class="st1" cx="580.8" cy="146.9" r="48.1"/><circle class="st1" cx="677.4" cy="103.8" r="69"/><circle class="st1" cx="544.3" cy="87.6" r="39.6"/><circle class="st1" cx="509.1" cy="171.4" r="39.6"/></g><g><circle class="st2" cx="301.9" cy="189.8" r="38.6"/><circle class="st2" cx="271.3" cy="237.7" r="38.6"/><circle class="st2" cx="239.7" cy="328.3" r="74.6"/><circle class="st2" cx="372.1" cy="169.3" r="50.2"/><circle class="st2" cx="411" cy="80.9" r="21.1"/><circle class="st2" cx="501.3" cy="78.8" r="21.1"/><circle class="st2" cx="448.8" cy="90.8" r="13.7"/><circle class="st2" cx="429.1" cy="100.2" r="13.7"/><circle class="st2" cx="382" cy="82.1" r="13.7"/><circle class="st2" cx="494.6" cy="146.6" r="13.7"/><circle class="st2" cx="363.7" cy="109.9" r="26.7"/><circle class="st2" cx="325.7" cy="123.1" r="26.7"/></g><g><circle class="st3" cx="170.3" cy="225.5" r="31.7"/><circle class="st3" cx="240" cy="151.2" r="31.7"/><circle class="st3" cx="126.6" cy="249.4" r="44.3"/><circle class="st3" cx="206.8" cy="230.1" r="26.7"/><circle class="st3" cx="200" cy="167.3" r="26.7"/><circle class="st3" cx="173.1" cy="186.7" r="12.9"/><circle class="st3" cx="265" cy="106.1" r="12.9"/></g><g><circle class="st4" cx="412" cy="295.3" r="38.5"/><circle class="st4" cx="572.9" cy="335.7" r="45.8"/><circle class="st4" cx="470.9" cy="273" r="38.6"/><circle class="st4" cx="372.1" cy="252.1" r="38.6"/><circle class="st4" cx="316.9" cy="271.3" r="38.6"/><circle class="st4" cx="492.3" cy="322.1" r="26.7"/><circle class="st4" cx="523.4" cy="300.5" r="26.7"/></g></svg>
