<svg xmlns="http://www.w3.org/2000/svg" xmlns:xlink="http://www.w3.org/1999/xlink" version="1.1" class="marks" width="279" height="102" viewBox="76.9014 0 200.6971 73.3732" style="background-color: white;"><g fill="none" stroke-miterlimit="10" transform="translate(71,5)"><g class="mark-group role-frame root" role="graphics-object" aria-roledescription="group mark container"><g transform="translate(0,0)"><g><g class="mark-line role-mark layer_0_marks" role="graphics-object" aria-roledescription="line mark container"><path aria-label="build: 1; result: PASSED" role="graphics-symbol" aria-roledescription="line mark" d="M12.5,30L25,30L37.5,10L50,10L62.5,50L75,30L87.5,30L100,10L112.5,30L125,30L137.5,50L150,30L162.5,30L175,10L187.5,30L200,50" stroke="#4c78a8" stroke-width="2"/></g><g class="mark-symbol role-mark layer_1_marks" role="graphics-object" aria-roledescription="symbol mark container"><path aria-label="build: 1; result: PASSED" role="graphics-symbol" aria-roledescription="point" transform="translate(12.5,30)" d="M2.739,0A2.739,2.739,0,1,1,-2.739,0A2.739,2.739,0,1,1,2.739,0" fill="#4c78a8" stroke-width="2" opacity="1"/><path aria-label="build: 2; result: PASSED" role="graphics-symbol" aria-roledescription="point" transform="translate(25,30)" d="M2.739,0A2.739,2.739,0,1,1,-2.739,0A2.739,2.739,0,1,1,2.739,0" fill="#4c78a8" stroke-width="2" opacity="1"/><path aria-label="build: 3; result: FAILED" role="graphics-symbol" aria-roledescription="point" transform="translate(37.5,10)" d="M2.739,0A2.739,2.739,0,1,1,-2.739,0A2.739,2.739,0,1,1,2.739,0" fill="#4c78a8" stroke-width="2" opacity="1"/><path aria-label="build: 4; result: FAILED" role="graphics-symbol" aria-roledescription="point" transform="translate(50,10)" d="M2.739,0A2.739,2.739,0,1,1,-2.739,0A2.739,2.739,0,1,1,2.739,0" fill="#4c78a8" stroke-width="2" opacity="1"/><path aria-label="build: 5; result: SKIPPED" role="graphics-symbol" aria-roledescription="point" transform="translate(62.5,50)" d="M2.739,0A2.739,2.739,0,1,1,-2.739,0A2.739,2.739,0,1,1,2.739,0" fill="#4c78a8" stroke-width="2" opacity="1"/><path aria-label="build: 6; result: PASSED" role="graphics-symbol" aria-roledescription="point" transform="translate(75,30)" d="M2.739,0A2.739,2.739,0,1,1,-2.739,0A2.739,2.739,0,1,1,2.739,0" fill="#4c78a8" stroke-width="2" opacity="1"/><path aria-label="build: 7; result: PASSED" role="graphics-symbol" aria-roledescription="point" transform="translate(87.5,30)" d="M2.739,0A2.739,2.739,0,1,1,-2.739,0A2.739,2.739,0,1,1,2.739,0" fill="#4c78a8" stroke-width="2" opacity="1"/><path aria-label="build: 8; result: FAILED" role="graphics-symbol" aria-roledescription="point" transform="translate(100,10)" d="M2.739,0A2.739,2.739,0,1,1,-2.739,0A2.739,2.739,0,1,1,2.739,0" fill="#4c78a8" stroke-width="2" opacity="1"/><path aria-label="build: 9; result: PASSED" role="graphics-symbol" aria-roledescription="point" transform="translate(112.5,30)" d="M2.739,0A2.739,2.739,0,1,1,-2.739,0A2.739,2.739,0,1,1,2.739,0" fill="#4c78a8" stroke-width="2" opacity="1"/><path aria-label="build: 10; result: PASSED" role="graphics-symbol" aria-roledescription="point" transform="translate(125,30)" d="M2.739,0A2.739,2.739,0,1,1,-2.739,0A2.739,2.739,0,1,1,2.739,0" fill="#4c78a8" stroke-width="2" opacity="1"/><path aria-label="build: 11; result: SKIPPED" role="graphics-symbol" aria-roledescription="point" transform="translate(137.5,50)" d="M2.739,0A2.739,2.739,0,1,1,-2.739,0A2.739,2.739,0,1,1,2.739,0" fill="#4c78a8" stroke-width="2" opacity="1"/><path aria-label="build: 12; result: PASSED" role="graphics-symbol" aria-roledescription="point" transform="translate(150,30)" d="M2.739,0A2.739,2.739,0,1,1,-2.739,0A2.739,2.739,0,1,1,2.739,0" fill="#4c78a8" stroke-width="2" opacity="1"/><path aria-label="build: 13; result: PASSED" role="graphics-symbol" aria-roledescription="point" transform="translate(162.5,30)" d="M2.739,0A2.739,2.739,0,1,1,-2.739,0A2.739,2.739,0,1,1,2.739,0" fill="#4c78a8" stroke-width="2" opacity="1"/><path aria-label="build: 14; result: FAILED" role="graphics-symbol" aria-roledescription="point" transform="translate(175,10)" d="M2.739,0A2.739,2.739,0,1,1,-2.739,0A2.739,2.739,0,1,1,2.739,0" fill="#4c78a8" stroke-width="2" opacity="1"/><path aria-label="build: 15; result: PASSED" role="graphics-symbol" aria-roledescription="point" transform="translate(187.5,30)" d="M2.739,0A2.739,2.739,0,1,1,-2.739,0A2.739,2.739,0,1,1,2.739,0" fill="#4c78a8" stroke-width="2" opacity="1"/><path aria-label="build: 16; result: SKIPPED" role="graphics-symbol" aria-roledescription="point" transform="translate(200,50)" d="M2.739,0A2.739,2.739,0,1,1,-2.739,0A2.739,2.739,0,1,1,2.739,0" fill="#4c78a8" stroke-width="2" opacity="1"/></g></g></g></g></g></svg>
