<svg xmlns="http://www.w3.org/2000/svg" aria-hidden="false" aria-label="Interactive chart" viewBox="0 0 600 400" height="400" width="600" style="font-family:Helvetica,Arial,sans-serif;font-size:1rem" class="highcharts-root"><defs aria-hidden="true"><linearGradient id="b" y2="1" x2="0" y1="0" x1="0"><stop stop-color="#FFF" offset="0"/><stop stop-color="#2caffe" offset="1"/></linearGradient><clipPath id="a"><path fill="none" d="M1 1h432v279H1z"/></clipPath></defs><g aria-hidden="true" data-z-index="7" class="highcharts-axis-labels highcharts-xaxis-labels" text-anchor="end"><text y="343" style="color:#333;cursor:default;font-size:.8em;fill:#333" transform="rotate(-45 116.478 343)" x="116.478">Alexander</text><text y="343" style="color:#333;cursor:default;font-size:.8em;fill:#333" transform="rotate(-45 159.778 343)" x="159.778">Marie</text><text y="343" style="color:#333;cursor:default;font-size:.8em;fill:#333" transform="rotate(-45 203.078 343)" x="203.078">Maximilian</text><text y="343" style="color:#333;cursor:default;font-size:.8em;fill:#333" transform="rotate(-45 246.378 343)" x="246.378">Sophia</text><text y="343" style="color:#333;cursor:default;font-size:.8em;fill:#333" transform="rotate(-45 289.678 343)" x="289.678">Lukas</text><text y="343" style="color:#333;cursor:default;font-size:.8em;fill:#333" transform="rotate(-45 332.978 343)" x="332.978">Maria</text><text y="343" style="color:#333;cursor:default;font-size:.8em;fill:#333" transform="rotate(-45 376.278 343)" x="376.278">Leon</text><text y="343" style="color:#333;cursor:default;font-size:.8em;fill:#333" transform="rotate(-45 419.578 343)" x="419.578">Anna</text><text y="343" style="color:#333;cursor:default;font-size:.8em;fill:#333" transform="rotate(-45 462.878 343)" x="462.878">Tim</text><text y="343" style="color:#333;cursor:default;font-size:.8em;fill:#333" transform="rotate(-45 506.178 343)" x="506.178">Laura</text></g><g aria-hidden="true" data-z-index="7" class="highcharts-axis-labels highcharts-yaxis-labels" text-anchor="end"><text y="73" style="color:#333;cursor:default;font-size:.8em;fill:#333" x="77">Monday</text><text y="129" style="color:#333;cursor:default;font-size:.8em;fill:#333" x="77">Tuesday</text><text y="185" style="color:#333;cursor:default;font-size:.8em;fill:#333" x="77">Wednesday</text><text y="241" style="color:#333;cursor:default;font-size:.8em;fill:#333" x="77">Thursday</text><text y="297" style="color:#333;cursor:default;font-size:.8em;fill:#333" x="77">Friday</text></g></svg>
